# xmcd
#
# Track frame offsets:
#	150
#	15300
#	26325
#	51450
#	69075
#	87975
#	96975
#	112350
#	129825
#	146550
#	162675
#	178800
#	195750
#	211950
#	234525
#	250500
#	263775
#	278250
#	307575
#	327525
#
# Disc length: 4498 seconds
#
# Revision: 2
# Processed by: cddbd v1.4b41PL2 Copyright (c) Steve Scherf et al.
# Submitted via: EZCDDA 4.3.2
#
DISCID=0c119014
DTITLE=Θεοδωράκης - Η Ελλάδα του Μίκη
DYEAR=1900
DGENRE=
TTITLE0=Μέρα Μαγιού μου μίσεψες
TTITLE1=Στο παραθύρι στεκόσουν
TTITLE2=Καυμός
TTITLE3=Σε πότισα ροδόσταμο
TTITLE4=Το παράπονο
TTITLE5=Μέσα στις θαλασσινές σπηλιές
TTITLE6=Στο περιγιάλι το κρυφό
TTITLE7=Βράχο βράχο
TTITLE8=Ένα δειλινό
TTITLE9=Όμορφη πόλη
TTITLE10=Αστέρι μου φεγγάρι μου (αγάπη μου)
TTITLE11=Στρώσε το στρώμα σου
TTITLE12=Ένα το χελιδόνι
TTITLE13=Της δικαιοσύνης ήλιε
TTITLE14=Του μικρού Βορηά
TTITLE15=Χρυσοπράσινο φύλλο
TTITLE16=Ο Αντώνης
TTITLE17=’σμα Ασμάτων
TTITLE18=Θα σημάνουν οι καμπάνες
TTITLE19=Λίγο ακόμα
EXTD=
EXTT0=
EXTT1=
EXTT2=
EXTT3=
EXTT4=
EXTT5=
EXTT6=
EXTT7=
EXTT8=
EXTT9=
EXTT10=
EXTT11=
EXTT12=
EXTT13=
EXTT14=
EXTT15=
EXTT16=
EXTT17=
EXTT18=
EXTT19=
PLAYORDER=
